<?xml version="1.0" encoding="UTF-8" standalone="no"?>
<svg
   width="168"
   height="43"
   viewBox="0 0 168 43"
   fill="none"
   version="1.1"
   id="svg9"
   sodipodi:docname="logo.svg"
   inkscape:version="1.4.2 (f4327f4, 2025-05-13)"
   xmlns:inkscape="http://www.inkscape.org/namespaces/inkscape"
   xmlns:sodipodi="http://sodipodi.sourceforge.net/DTD/sodipodi-0.dtd"
   xmlns="http://www.w3.org/2000/svg"
   xmlns:svg="http://www.w3.org/2000/svg">
  <defs
     id="defs9" />
  <sodipodi:namedview
     id="namedview9"
     pagecolor="#ffffff"
     bordercolor="#000000"
     borderopacity="0.25"
     inkscape:showpageshadow="2"
     inkscape:pageopacity="0.0"
     inkscape:pagecheckerboard="0"
     inkscape:deskcolor="#d1d1d1"
     inkscape:zoom="3.8280572"
     inkscape:cx="86.728066"
     inkscape:cy="12.669612"
     inkscape:window-width="1920"
     inkscape:window-height="1111"
     inkscape:window-x="-9"
     inkscape:window-y="-9"
     inkscape:window-maximized="1"
     inkscape:current-layer="svg9" />
  <path
     d="M8.63281 8L15.8667 14.1803C16.2962 14.5472 16.5438 15.0856 16.5438 15.6527V20.3104L9.30979 14.1302C8.88033 13.7633 8.63281 13.2248 8.63281 12.6577V8Z"
     fill="#5044E5"
     id="path2"
     style="fill:#ff00ff" />
  <path
     d="M8.63281 35.9999L15.8667 29.8196C16.2962 29.4527 16.5438 28.9143 16.5438 28.3472V23.6895L9.30979 29.8697C8.88033 30.2366 8.63281 30.775 8.63281 31.3421V35.9999Z"
     fill="#5044E5"
     id="path3"
     style="fill:#ff00ff" />
  <path
     d="M0 14.5166L7.13558 20.5788C7.48152 20.8727 7.91958 21.0339 8.37228 21.0339H14.1268L7.00881 14.9731C6.66261 14.6784 6.22387 14.5166 5.77046 14.5166H0Z"
     fill="#5044E5"
     id="path4" />
  <path
     d="M0 29.4822L7.09169 23.4235C7.43826 23.1274 7.87793 22.9648 8.33245 22.9648H14.144L7.00839 29.027C6.66242 29.3209 6.22434 29.4822 5.77166 29.4822H0Z"
     fill="#5044E5"
     id="path5" />
  <path
     d="M26.3719 8L19.1379 14.1803C18.7085 14.5472 18.4609 15.0856 18.4609 15.6527V20.3104L25.6949 14.1302C26.1243 13.7633 26.3719 13.2248 26.3719 12.6577V8Z"
     fill="#5044E5"
     id="path6" />
  <path
     d="M26.3719 35.9999L19.1379 29.8196C18.7085 29.4527 18.4609 28.9143 18.4609 28.3472V23.6895L25.6949 29.8697C26.1243 30.2366 26.3719 30.775 26.3719 31.3421V35.9999Z"
     fill="#5044E5"
     id="path7"
     style="fill:#ff00ff" />
  <path
     d="M35.0019 14.5166L27.8663 20.5788C27.5204 20.8727 27.0822 21.0339 26.6296 21.0339H20.875L27.9931 14.9731C28.3392 14.6784 28.778 14.5166 29.2314 14.5166H35.0019Z"
     fill="#5044E5"
     id="path8" />
  <path
     d="M34.9994 29.4822L27.9077 23.4235C27.5612 23.1274 27.1214 22.9648 26.6669 22.9648H20.8555L27.991 29.027C28.337 29.3209 28.775 29.4822 29.2277 29.4822H34.9994Z"
     fill="#5044E5"
     id="path9" />
  <path
     style="fill:#ff00ff;fill-opacity:1;stroke-width:0.130615"
     d="m 18.547267,17.646819 c 0,-1.6504 0.0516,-2.531173 0.162543,-2.774674 0.0894,-0.196208 1.808612,-1.764426 3.820475,-3.484928 l 3.657934,-3.128186 0.03572,2.399413 c 0.02411,1.619762 -0.01423,2.520002 -0.118002,2.770531 -0.09287,0.224217 -1.554654,1.571241 -3.692927,3.403015 -1.946563,1.667544 -3.612676,3.077092 -3.702474,3.13233 -0.128351,0.07895 -0.163268,-0.416668 -0.163268,-2.317501 z"
     id="path10" />
  <text
     xml:space="preserve"
     style="text-align:start;writing-mode:lr-tb;direction:ltr;text-anchor:start;fill:#5044e5;fill-opacity:1"
     x="40.882355"
     y="28.865816"
     id="text10"><tspan
       sodipodi:role="line"
       id="tspan10"
       x="40.882355"
       y="28.865816" /></text>
  <text
     xml:space="preserve"
     style="text-align:start;writing-mode:lr-tb;direction:ltr;text-anchor:start;fill:#5044e5;fill-opacity:1"
     x="44.14772"
     y="18.416653"
     id="text11"><tspan
       sodipodi:role="line"
       id="tspan11"
       x="44.14772"
       y="18.416653" /></text>
  <text
     xml:space="preserve"
     style="font-style:normal;font-variant:normal;font-weight:normal;font-stretch:extra-condensed;font-size:21.3333px;font-family:Algerian;-inkscape-font-specification:'Algerian Extra-Condensed';text-align:start;writing-mode:lr-tb;direction:ltr;text-anchor:start;white-space:pre;inline-size:125.963;fill:#5044e5;fill-opacity:1"
     x="44.278336"
     y="25.992296"
     id="text12"
     transform="translate(-4.9726356,3.3249038)"><tspan
       x="44.278336"
       y="25.992296"
       id="tspan1">Scriptly.ai</tspan></text>
</svg>
