<?xml version="1.0" encoding="UTF-8" standalone="no"?>
<svg
   width="35"
   height="28"
   viewBox="0 0 35 28"
   fill="none"
   version="1.1"
   id="svg8"
   sodipodi:docname="favicon.svg"
   inkscape:version="1.4.2 (f4327f4, 2025-05-13)"
   xmlns:inkscape="http://www.inkscape.org/namespaces/inkscape"
   xmlns:sodipodi="http://sodipodi.sourceforge.net/DTD/sodipodi-0.dtd"
   xmlns="http://www.w3.org/2000/svg"
   xmlns:svg="http://www.w3.org/2000/svg">
  <defs
     id="defs8" />
  <sodipodi:namedview
     id="namedview8"
     pagecolor="#ffffff"
     bordercolor="#ffffff"
     borderopacity="0.24705882"
     inkscape:showpageshadow="2"
     inkscape:pageopacity="0.0"
     inkscape:pagecheckerboard="0"
     inkscape:deskcolor="#d1d1d1"
     inkscape:zoom="22.627417"
     inkscape:cx="19.158174"
     inkscape:cy="14.650369"
     inkscape:window-width="1920"
     inkscape:window-height="1111"
     inkscape:window-x="-9"
     inkscape:window-y="-9"
     inkscape:window-maximized="1"
     inkscape:current-layer="svg8" />
  <rect
     style="fill:#f9f9f9;stroke:#fcfcfc;stroke-opacity:1"
     id="rect9"
     width="33.985321"
     height="27.223614"
     x="0.44194177"
     y="0.35355338"
     ry="0" />
  <path
     style="fill:#f9f9f9;stroke:#fcfcfc;stroke-width:0.0441942;stroke-opacity:1"
     d="M 0.92807765,13.965359 V 0.86178639 H 17.434602 33.941126 V 13.965359 27.068932 H 17.434602 0.92807765 Z"
     id="path10" />
  <path
     style="fill:#f9f9f9;stroke:#fcfcfc;stroke-width:0.0441942;stroke-opacity:1;fill-opacity:1"
     d="M -0.04419417,13.965359 V -0.15467961 H 17.434602 34.913397 V 13.965359 28.085398 H 17.434602 -0.04419417 Z m 33.96322217,0 V 0.88388348 H 17.434602 0.95017474 L 0.938859,13.921165 c -0.006224,7.170505 -0.001866,13.062167 0.009684,13.092583 0.0167703,0.04416 3.3390988,0.05306 16.495742,0.04419 l 16.474743,-0.01111 z"
     id="path11" />
  <path
     style="fill:#f9f9f9;fill-opacity:1;stroke:#fcfcfc;stroke-width:0.0441942;stroke-opacity:1"
     d="M -0.03321414,13.95431 -0.02209709,-0.13258252 H 17.434602 34.8913 L 34.90242,13.95431 34.91354,28.041203 H 17.434602 -0.04433121 Z M 33.941126,13.965475 V 0.86178639 H 17.434602 0.92807765 L 0.93905213,13.95431 0.9500266,27.046834 0.96122302,13.976408 0.97241939,0.90598057 H 17.434675 33.896931 V 13.965476 27.024971 L 17.471665,27.02462 c -9.0338972,-1.94e-4 -16.4352113,0.0096 -16.4473653,0.02175 -0.012154,0.01215 7.3891595,0.02226 16.4473643,0.02245 l 16.469462,3.5e-4 z"
     id="path12" />
  <path
     style="fill:#f9f9f9;fill-opacity:1;stroke:#fcfcfc;stroke-width:0.03125;stroke-opacity:1"
     d="m -0.01764338,21.679688 c 0.0061568,-3.484766 0.01264529,-9.812891 0.01441881,-14.0625005 L 0,-0.109375 h 17.43446 17.434462 l 0.01085,13.507813 c 0.006,7.429296 0.0062,13.757421 4.59e-4,14.0625 l -0.01039,0.554687 H 17.4205 -0.02883762 Z M 33.96875,13.953125 v -13.125 H 17.435356 0.90196194 l 0.008616,10.648438 c 0.004739,5.85664 0.0172163,11.759375 0.0277274,13.117187 0.0163387,2.110616 0.0210664,1.641414 0.0325902,-3.234375 0.007414,-3.136719 0.0134791,-7.067187 0.0134791,-8.734375 0,-1.667187 0.003516,-4.9824219 0.007813,-7.3671875 L 1,0.921875 H 17.4375 33.875 V 13.96875 27.015625 l -16.367187,0.0049 c -9.0019536,0.0027 -16.4001118,0.0019 -16.4403521,-0.0016 -0.044436,-0.0039 -0.065185,0.0064 -0.052843,0.02639 0.014177,0.02294 4.9988351,0.03288 16.4872261,0.03288 H 33.96875 Z"
     id="path13" />
  <path
     d="m 8.63281,0 7.23389,6.18025 c 0.4295,0.36691 0.6771,0.90534 0.6771,1.47241 V 12.3104 L 9.30979,6.13018 C 8.88033,5.76327 8.63281,5.22484 8.63281,4.65773 Z"
     fill="#5044E5"
     id="path1"
     style="fill:#ff00ff" />
  <path
     d="m 8.63281,27.9999 7.23389,-6.1803 c 0.4295,-0.3669 0.6771,-0.9053 0.6771,-1.4724 V 15.6895 L 9.30979,21.8697 C 8.88033,22.2366 8.63281,22.775 8.63281,23.3421 Z"
     fill="#5044E5"
     id="path2"
     style="fill:#ff00ff" />
  <path
     d="m 0,6.5166 7.13558,6.0622 c 0.34594,0.2939 0.784,0.4551 1.2367,0.4551 H 14.1268 L 7.00881,6.97314 C 6.66261,6.67835 6.22387,6.5166 5.77046,6.5166 Z"
     fill="#5044e5"
     id="path3" />
  <path
     d="M 0,21.4822 7.09169,15.4235 C 7.43826,15.1274 7.87793,14.9648 8.33245,14.9648 H 14.144 L 7.00839,21.027 c -0.34597,0.2939 -0.78405,0.4552 -1.23673,0.4552 z"
     fill="#5044e5"
     id="path4" />
  <path
     d="m 26.3719,0 -7.234,6.18025 c -0.4294,0.36691 -0.677,0.90534 -0.677,1.47241 v 4.65774 l 7.234,-6.18022 c 0.4294,-0.36691 0.677,-0.90534 0.677,-1.47245 z"
     fill="#5044E5"
     id="path5"
     style="fill:#ff00ff" />
  <path
     d="m 26.3719,27.9999 -7.234,-6.1803 c -0.4294,-0.3669 -0.677,-0.9053 -0.677,-1.4724 v -4.6577 l 7.234,6.1802 c 0.4294,0.3669 0.677,0.9053 0.677,1.4724 z"
     fill="#5044E5"
     id="path6"
     style="fill:#ff00ff" />
  <path
     d="m 35.0019,6.5166 -7.1356,6.0622 c -0.3459,0.2939 -0.7841,0.4551 -1.2367,0.4551 H 20.875 L 27.9931,6.97314 C 28.3392,6.67835 28.778,6.5166 29.2314,6.5166 Z"
     fill="#5044e5"
     id="path7" />
  <path
     d="m 34.9994,21.4822 -7.0917,-6.0587 c -0.3465,-0.2961 -0.7863,-0.4587 -1.2408,-0.4587 h -5.8114 l 7.1355,6.0622 c 0.346,0.2939 0.784,0.4552 1.2367,0.4552 z"
     fill="#5044e5"
     id="path8" />
</svg>
